<?xml version="1.0" encoding="UTF-8"?>
<svg id="Capa_1" data-name="Capa 1" xmlns="http://www.w3.org/2000/svg" viewBox="0 0 1024 1024">
  <defs>
    <style>
      .cls-1 {
        fill: #ddf290;
      }

      .cls-2 {
        fill: #fff;
      }
    </style>
  </defs>
  <path class="cls-2" d="M406.55,839.29c-10.72,0-20.41-5.92-25.92-15.84-5.17-9.3-3.31-20.21,3.15-42.71.39-1.34.7-2.43.88-3.11l13.37-51.06,38.05-143.46c-4.47-.02-9.19-.03-14.21-.03-8.35,0-16.7.03-25.05.06-8.39.03-16.78.06-25.16.06h-5.07c-3.11,0-6.88.08-10.87.18-4.7.11-9.56.22-14.34.22-6.74,0-11.83-.23-16.03-.73-6.61-.79-12.36-3.45-17.13-7.89-5.58-5.2-8.8-12.41-9.06-20.31-.19-5.82-.28-8.74,29.48-85.64,2.25-5.82,4.03-10.42,4.89-12.69l62.44-166.38c4.31-11.48,8.65-23.21,12.84-34.54,6.1-16.51,12.42-33.58,18.81-50.35,7.42-19.45,24.09-20.07,30.37-20.3h.37s134.08.03,134.08.03c0,0,51.07-.06,52.79-.06,5.19,0,11.33.03,17.52.28,12.61.5,23.38,9.28,26.8,21.87,1.25,4.61,1.96,11.87-1.78,20.36-2.77,6.29-5.78,12.39-8.69,18.29-1.11,2.24-2.21,4.49-3.3,6.73l-22.71,46.96-58.73,121.32,57.03.02c4.15,0,8.32-.02,12.5-.05,4.33-.02,8.67-.05,13-.05,7.76,0,14.09.08,19.93.25,10.8.31,20.49,6.63,25.29,16.51,4.79,9.86,3.73,21.42-2.76,30.18-6.25,8.44-12.8,16.54-19.13,24.37l-3.4,4.22-40.8,50.76-140.94,175.58-52.52,65.38c-3.5,4.41-7,8.77-10.5,13.14-5.9,7.36-11.99,14.97-18.05,22.69-6.29,9.76-16.67,15.76-27.45,15.76Z"/>
  <path d="M458.73,204.74l133.71.05,43.32-.05c8.73,0,17.48-.1,26.21.25,4.2.17,7.22,3.2,8.29,7.13.66,2.43.21,4.77-.79,7.04-3.62,8.23-7.76,16.27-11.68,24.37l-22.71,46.98-72.62,150.01,88.92.03c14.93,0,29.96-.28,44.86.14,7.04.2,11.54,8.72,7.04,14.8-7.09,9.56-14.58,18.69-22.04,27.95l-40.82,50.77-140.95,175.59-52.55,65.41c-9.76,12.28-19.45,24.21-29.34,36.85-4.51,7.73-14.46,10.68-19.47,1.67-2.36-4.25,4.64-26.22,5.9-31.1l13.36-51.01,44.62-168.22c-31.69-.62-63.47-.18-95.17-.22-11.18-.02-28.85,1.03-39.12-.18-2.29-.28-4.15-1.07-5.85-2.66-1.78-1.66-2.63-3.93-2.7-6.33-.19-5.78,28.5-78.4,33.1-90.65l62.44-166.39c10.6-28.23,20.86-56.61,31.61-84.79,2.51-6.58,6.25-7.21,12.42-7.44Z"/>
  <path class="cls-1" d="M462.33,223.52c60.8.81,122.87,0,183.77.05-2.64,6.26-6.67,13.91-9.7,20.13l-16.47,34.29-57.38,118.39-16.92,34.95c-2,4.11-7.79,14.04-7.89,17.96-.07,2.99,1.16,5.85,3.34,7.88,3.88,3.54,41.68,2.25,49.49,2.25l85.61-.1c-17.66,23.11-38.72,48.22-57.15,71.14l-110.43,137.48-81.57,101.52,42.04-158.23,9.85-37.07c1.7-6.35,3.98-13.49,4.8-19.89.6-4.65-4.06-9.31-8.69-9.55-5.35-.29-10.38-.3-15.7-.3h-27.11s-89.96-.02-89.96-.02c3.95-11.66,8.68-23.45,13.04-34.99l19.09-50.94,52.91-141.21c11.58-30.78,24.03-62.85,35.02-93.77Z"/>
</svg>