<?xml version="1.0" encoding="UTF-8"?>
<svg id="Capa_1" data-name="Capa 1" xmlns="http://www.w3.org/2000/svg" viewBox="0 0 1024 1024">
  <defs>
    <style>
      .cls-1 {
        fill: #f19ed9;
        stroke: #1d1d1b;
        stroke-miterlimit: 10;
        stroke-width: 20px;
      }

      .cls-2 {
        fill: #fff;
      }
    </style>
  </defs>
  <path class="cls-2" d="M486.5,713.69c8.37,8.89,17.69,14.55,29.29,12.93,8.24-1.15,14.6-5.13,20.52-11.43l168.92-179.75c23.34-24.83,37.3-56.45,39.34-90.2,3.32-54.98-26.64-107.42-75.95-132.52s-110.09-19.29-154.46,14.4c-.67.51-1.55.17-2.41,1.25-28.95-22.57-64.27-33.17-100.58-30.87-70.12,4.44-126.69,60.18-131.72,130.06-.44,6.09-.25,11.94.12,18.24,2.09,34.92,17.41,66.66,41.48,92.21l165.45,175.67Z"/>
  <g id="Objeto_generativo" data-name="Objeto generativo">
    <path class="cls-1" d="M413.02,344.59c29.06-2.83,55.34,10.07,77.8,27.35l21.07,16.22c.17.13.33.26.5.38l20.87-16.33c24.82-19.62,54.77-32.36,86.27-26.56,16.26,3,31.17,9.24,44.22,19.85,22.78,18.52,35.78,47.78,33.8,77.13-1.67,24.76-13.02,46.71-29.92,64.67l-130.26,138.48-25.39,26.32-23.26-24.43-137.19-146.13c-16.9-18-27.5-47.96-24.82-72.99,2.43-22.69,12.88-44.5,30.26-59.82,15.88-13.99,35.7-22.15,56.05-24.13Z"/>
  </g>
</svg>