<?xml version="1.0" encoding="UTF-8"?>
<svg id="Capa_1" data-name="Capa 1" xmlns="http://www.w3.org/2000/svg" viewBox="0 0 1024 1024">
  <defs>
    <style>
      .cls-1 {
        stroke: #000;
        stroke-miterlimit: 10;
      }

      .cls-1, .cls-2 {
        fill: #fff;
      }

      .cls-3 {
        fill: #f19ed9;
        stroke: #020303;
        stroke-linecap: round;
        stroke-linejoin: round;
        stroke-width: 20px;
      }
    </style>
  </defs>
  <g id="Objeto_generativo" data-name="Objeto generativo">
    <g>
      <path class="cls-2" d="M560.16,742.65c-16.8,0-31.12-9.81-36.47-25l-48.45-137.45-135.12-47.38c-16.21-5.68-26.67-19.32-27.3-35.6-.7-18.02,9.63-33.46,26.32-39.33l136.06-47.85,47.56-135.51c5.41-15.42,19.24-25.91,35.21-26.72.68-.03,1.37-.05,2.06-.05,16.97,0,32.07,10.48,37.55,26.07l48.02,136.46,137.04,48.2c17.79,6.26,26.05,24.62,25.01,39.52-1.11,15.96-11.4,29.25-26.85,34.69l-135.33,47.62-47.47,134.93c-5.63,16-18.76,26.21-35.12,27.3-.89.06-1.81.09-2.73.09Z"/>
      <path class="cls-1" d="M569.71,705.3c-1.72,4.9-4.48,7.04-8.82,7.33-2.67.18-7.36-.58-8.9-4.95l-53.23-151.02-148.71-52.14c-4.53-1.59-7.1-4.53-7.25-8.45s1.47-8.17,6.3-9.87l149.64-52.63,52.32-149.1c1.51-4.3,5.14-6.52,8.43-6.69,3.71-.19,8.23,1.59,9.79,6.01l52.8,150.04,150.61,52.97c3.91,1.37,5.22,6.55,5.04,9.15-.27,3.82-2.28,6.84-6.88,8.46l-148.9,52.39-52.24,148.5Z"/>
      <polygon class="cls-3" points="782.46 495.18 618.27 437.52 560.25 273.14 502.46 437.13 338.8 495.08 502.56 553.07 560.41 717.23 618.51 552.87 778.51 496.67 782.46 495.18"/>
    </g>
  </g>
</svg>