<?xml version="1.0" encoding="UTF-8"?>
<svg id="Capa_1" data-name="Capa 1" xmlns="http://www.w3.org/2000/svg" viewBox="0 0 1024 1024">
  <defs>
    <style>
      .cls-1 {
        fill: #020907;
      }

      .cls-2 {
        fill: #fff;
      }

      .cls-3 {
        fill: #7f6ee6;
        stroke: #020303;
        stroke-miterlimit: 10;
        stroke-width: 12px;
      }
    </style>
  </defs>
  <path class="cls-2" d="M723.36,710.87l-17.78-.03-75.04-.1-34.97.05-77.34-.09-45.07.02-117.62.1c-11.88,0-25.63-1.6-37.45-13.48-12.27-12.32-13.61-27.35-13.56-37.58l.12-23.97c.05-10.23,5.2-19.41,13.76-24.55,6.46-3.88,12.93-3.88,15.06-3.88.76,0,1.54.02,2.34.04.39.01.79.03,1.2.03h3.82c-.65-3.47-.98-7.04-.96-10.66l.06-12.42v-119.02c0-2.43,0-4.57-.02-6.75v-4.97s-.04-18.56-.04-18.56l.05-25.57-.05-20.87c-.04-14.45,5.12-28.21,14.51-38.72,10.1-11.31,23.9-17.55,38.85-17.57l23.28-.04,86.84-.25,17.86.24,25.21.05,25.17-.27,144.51.42c28.17.08,52.07,23.69,52.19,51.55l.52,119.11.03,92.17c0,4.27-.51,8.23-1.35,11.9l13.33-.13c15.78,0,28.68,12.54,28.75,27.96.01,2.81.05,5.6.1,8.37.12,7.9.24,16.07-.29,24.69-.65,10.59-5.91,22-13.73,29.77-13.18,13.11-29.71,13.11-37.66,13.11l-34.62-.08Z"/>
  <g id="Objeto_generativo" data-name="Objeto generativo">
    <g>
      <g>
        <path class="cls-3" d="M735.79,626.04h-371c-5.41-.36-10.87.53-16.69.51l-11.57-.03c-3.05,0-5.91-.46-8.25.95-2.54,1.53-4.04,4.31-4.06,7.51l-.12,23.97c-.05,9.29,1.43,17.04,7.74,23.37,6.4,6.43,13.89,7.59,23.38,7.59l117.51-.1,45.1-.02,77.29.09,35.02-.05,75.04.1,17.79.03,34.18.08c8.58.02,17.21-.6,23.94-7.29,4.18-4.16,7.5-10.8,7.87-16.82.66-10.74.21-21.02.16-31.74-.02-4.62-4.49-8.09-8.82-8.04l-31.77.31-12.75-.41Z"/>
        <path d="M489.05,657.55c0-6.35,5.15-11.5,11.5-11.49l112.39.11c6.38,0,11.52,5.21,11.46,11.59h0c-.07,6.29-5.19,11.35-11.47,11.35l-112.39-.06c-6.34,0-11.49-5.15-11.49-11.49h0Z"/>
      </g>
      <g>
        <path class="cls-3" d="M362.23,626l.06-44.16v-119.12c0-4.22-.02-7.56-.03-11.75l-.03-18.56.05-25.51-.05-20.96c-.05-19.29,14.05-36.21,33.4-36.24l23.28-.04,86.53-.25,17.98.24,25.44.05,25.03-.27,144.51.42c17.02.05,32.18,14.51,32.25,31.63l.52,119.11.03,125.83s-388.97-3.61-388.97-.41Z"/>
        <g>
          <path class="cls-1" d="M718.85,608.99l-325.04-.04c-6.8,0-12.21-6.42-12.21-12.78l-.07-212.04c0-6.71,4.19-15.17,12.36-15.17l324.89-.02c7.54,0,12.18,8.47,12.18,14.36l-.03,212.97c0,5.98-5.35,12.72-12.08,12.72Z"/>
          <path class="cls-2" d="M607.36,480.9l-79.67,103.56c-1.37,1.78-2.72,2.17-3.77,1.83-1.55-.5-3.21-2.08-2.58-4.15l23.2-76.01-36.89-.26c-1.5-.01-2.26-1.43-2.67-2.24-.56-1.11-.05-2.74.78-4.44l52.28-107.19,35.46.03c2.01,0,3.38,2.5,2.58,4.49l-31.61,78.71,41.02.34c2.19.02,3.62,3.06,1.87,5.32Z"/>
        </g>
      </g>
    </g>
  </g>
</svg>