<?xml version="1.0" encoding="UTF-8"?>
<svg id="Capa_1" xmlns="http://www.w3.org/2000/svg" version="1.1" viewBox="0 0 154 153">
  <!-- Generator: Adobe Illustrator 30.2.1, SVG Export Plug-In . SVG Version: 2.1.1 Build 1)  -->
  <defs>
    <style>
      .st0 {
        fill: #fff;
      }

      .st1 {
        fill: #d8f382;
      }

      .st2 {
        fill: #2a2b31;
      }
    </style>
  </defs>
  <path class="st0" d="M75.23.03c8.12-.48,8.9,5.46,10.24,11.73.59,2.78,1.35,5.65,2.02,8.42.71,2.91,1.24,6.04,2.07,8.9,1.07-1.04,2.47-2.61,3.54-3.73l9.21-9.63c1.29-1.33,3.99-4.27,5.38-5.24,1.09-.76,2.35-1.22,3.67-1.32,4.92-.41,8.97,4.04,8.41,8.8-.17,1.42-1.24,4.28-1.72,5.77l-4.46,13.77c-.16.49-1.3,3.95-1.28,4.25.53.11,3.87-1.01,4.6-1.22l10.02-2.87,4.87-1.41c3.77-1.1,7.3-2.32,10.64.71,1.55,1.41,2.47,3.38,2.58,5.47.22,4.64-3.05,6.72-6.22,9.46l-8.83,7.71c-1.04.91-3.85,3.21-4.67,4.11.47.55,20.15,4.43,22.67,5.42,1.1.43,2.31,1.13,3.05,2.06,1.56,1.96,2.29,4.22,1.93,6.72-.3,2.05-1.86,4.23-3.61,5.29-2.03,1.24-6.32,1.89-8.74,2.45l-11.94,2.71c-.35.08-3.3.72-3.34.76.18,1.09,16.41,14.54,17.89,17.14,2.17,3.84,1.26,8.16-2.35,10.72-3.3,2.34-6.96.89-10.4-.14l-5.71-1.66-11.22-3.31c-.3-.09-1.44-.41-1.66-.3-.04.4.7,2.51.86,3.1,1.26,4.61,2.58,9.2,3.96,13.78l1.11,3.8c.17.58.47,1.3.57,1.88.41,2.4.08,4.38-1.24,6.4-2.17,3.32-7.01,4.36-10.38,2.45-2.11-1.19-4.26-4.08-5.93-5.89l-7.75-8.42c-.76-.83-2.71-3.04-3.49-3.6-.32.3-3.35,14.05-3.82,15.66-1.64,5.62-.88,10.29-7.8,12.17-3.6.1-6.05-.4-8.2-3.67-1.17-1.77-1.21-3.58-1.71-5.57l-2.9-11.77c-.2-.82-1.29-6.43-1.62-6.87-.37.09-10.06,10.86-11.01,11.83-1.39,1.43-3.73,4.37-5.52,5.68-1.19.87-2.49,1.26-3.95,1.39-1.99.18-4.3-.6-5.8-1.89-1.47-1.27-2.56-3.58-2.62-5.51-.02-.57-.04-1.45.08-2.01.38-1.76,1-3.54,1.48-5.29,1.29-4.65,2.73-9.27,3.99-13.92.21-.76,1.03-3.18,1-3.76l-.12-.06c-.47.24-2.72.79-3.38.99-4.25,1.28-8.5,2.53-12.77,3.74-2.91.85-6.76,2.43-9.75,1.92-3.39-.57-5.97-3.24-6.4-6.67-.6-4.75,2.67-7.08,5.8-9.93l8.65-7.99c1.06-.97,3.74-3.25,4.58-4.29-.36-.49-20.7-4.49-23.1-5.53-1.94-.84-3.4-2.46-4.16-4.42-.74-1.97-.68-4.15.17-6.08,1.89-4.14,5.51-4.46,9.46-5.35l12.49-2.83c1.03-.24,4.13-.87,4.98-1.18.02-.04.05-.08.07-.13-.43-.52-1.97-1.8-2.38-2.16-3.12-2.72-6.15-5.36-9.24-8.11-2.2-1.95-4.98-4.01-6.83-6.28-.62-1.02-1.03-2.23-1.18-3.42-.24-1.99.33-4.29,1.61-5.86,1.11-1.35,3.15-2.57,4.89-2.77.9-.1,1.99-.08,2.9.05,1.92.48,3.92,1.11,5.83,1.66l13.37,3.9c.6.17,3.6,1.09,3.99,1.05.03-.54-.34-1.52-.52-2.05-2-5.99-3.83-12.03-5.82-18.02-.33-.99-.71-2.02-.9-3.04-.19-1-.21-2.02-.05-3.02.34-2,1.45-3.78,3.08-4.98,3.06-2.2,7.23-2.04,9.96.62,2.23,2.18,4.37,4.47,6.5,6.75,2.74,2.9,5.5,5.78,8.29,8.64.42.44,1.92,2.21,2.27,2.27.21-.41.99-3.97,1.16-4.7.85-3.8,1.73-7.58,2.66-11.36.28-1.18.58-2.45.82-3.63.99-4.86,1.94-7.9,7.12-9.23Z"/>
  <path class="st2" d="M76.29,5.26c1.44.04,2.33.69,2.7,2.09.37,1.4.67,2.81.99,4.21l1.98,8.47,2.73,11.59c.63,2.65,1.39,5.61,1.89,8.28,5.67-6.04,11.39-12.04,17.15-17.99l4.35-4.53c1.18-1.23,2.54-3.22,4.42-2.76.7.18,1.29.63,1.65,1.26.76,1.38-.43,3.99-.9,5.43l-1.93,5.96-7.23,22.6c3.04-.97,6.24-1.85,9.31-2.73l13.68-3.94,6.35-1.84c1.64-.47,4.14-1.6,5.52-.26.48.47.75,1.12.76,1.8,0,.58-.21,1.15-.6,1.58-.6.69-1.67,1.57-2.4,2.2l-3.95,3.43-12.77,11.19c-1.85,1.63-4.35,3.72-6.08,5.42,2.03.38,4.35.98,6.4,1.46l11.37,2.64c2.27.53,13.81,2.92,14.98,3.64.52.32.87.84,1.01,1.43.16.7.03,1.43-.36,2.03-.81,1.23-3.68,1.57-5.1,1.88l-6.69,1.52-21.6,5c5.51,4.85,10.88,9.94,16.31,14.87l5.4,4.94c1.37,1.25,3.8,2.82,3.36,4.88-.15.69-.58,1.28-1.19,1.63-1.36.78-3.45-.14-4.86-.57-1.61-.49-3.23-.97-4.85-1.44-7.86-2.24-16.2-4.94-24.06-7,2.1,7.85,4.62,16.07,6.86,23.93.45,1.56.91,3.12,1.38,4.68.27.91.84,2.68.9,3.56.06.73-.2,1.45-.7,1.99-.48.51-1.16.81-1.86.8-1.7,0-2.95-1.87-4.03-3.05l-4.14-4.51-10.47-11.38c-1.75-1.9-3.54-3.94-5.32-5.78-.74,2.71-1.41,5.99-2.07,8.78l-3.69,15.63c-.44,1.88-.86,3.77-1.33,5.63-.5,1.99-.46,3.16-2.68,3.75-3.16.02-3.2-3.14-3.77-5.6l-1.32-5.52-3.01-12.65c-.74-3.2-1.51-6.87-2.35-10.01-4.76,5.23-9.55,10.44-14.37,15.62-1.4,1.52-7.13,8.14-8.33,8.82-.56.32-1.24.37-1.85.19-.71-.2-1.3-.68-1.66-1.33-.74-1.35.41-4.13.85-5.62l1.98-6.86,6.02-21.08c-2.31.54-5.71,1.67-8.11,2.37l-16.73,4.89c-1.95.57-3.9,1.16-5.85,1.72-1.3.37-2.5.77-3.6-.32-.51-.51-.79-1.2-.77-1.92.05-1.61,2.22-3.12,3.36-4.15l4.34-3.98,17.44-15.9c-6.65-1.39-13.78-3.18-20.45-4.71l-6.6-1.52c-1.67-.38-4.2-.77-5.71-1.51-1.54-.75-1.43-3.83.52-4.35,1.31-.36,2.66-.67,4.02-.98l7.3-1.67,20.87-4.87c-1.77-1.82-5-4.49-6.98-6.22l-12.63-11.05c-.99-.86-5.36-4.54-5.85-5.35-.31-.51-.4-1.12-.26-1.7.79-3.27,4.88-1.46,6.97-.86l6.42,1.86c7.42,2.12,14.82,4.28,22.22,6.47l-5.23-16.39c-1.06-3.21-2.1-6.43-3.12-9.65-.54-1.67-1.84-5.11-2.05-6.82-.22-1.84,2.74-3.45,4.39-1.64.76.83,2.02,2.05,2.91,2.99l4.75,4.94c5.3,5.51,10.56,11.06,15.8,16.63,1.2-5.98,2.77-11.93,4.17-17.87.54-2.3,3.18-14.59,3.88-15.69.42-.65,1.1-.91,1.82-1.07Z"/>
  <path class="st1" d="M76.49,18.09c.25.5,1.15,4.54,1.32,5.3l3.29,14.12c.53,2.24,1.21,6.23,2.34,8.36.46.86,2.58,1.11,3.42.38.91-.79,1.82-1.75,2.7-2.68l3.96-4.14,13.2-13.7c-.79,2.21-1.49,4.52-2.2,6.76-2.07,6.51-4.22,13-6.22,19.54-.41,1.34-.04,2.35,1.13,3.13,1.18.79,3.16-.04,4.45-.4,1.89-.52,3.77-1.06,5.65-1.61,6.05-1.76,12.42-3.7,18.48-5.31-1.68,1.61-3.58,3.2-5.33,4.75l-9.1,8.07c-1.68,1.47-3.32,2.94-5.02,4.44-1.36,1.14-2.47,2.33-1.35,4.15.72,1.16,2.63,1.34,3.91,1.64l5.28,1.23,18.81,4.37c-1.79.57-5.34,1.26-7.33,1.72l-12.85,3c-1.52.35-6.61,1.24-7.58,2.23-.46.47-.71,1.12-.69,1.78.05,1.46,1.99,2.84,3.04,3.79l4.01,3.64c4.74,4.3,9.57,8.64,14.24,12.99-5.54-1.48-11.9-3.38-17.42-5.03-2.05-.62-4.1-1.22-6.16-1.81-1.09-.32-2.17-.65-3.28-.93-1.8-.48-3.37.94-3.05,2.78.18,1.06.55,2.11.85,3.14l1.46,5.08c1.77,6.29,3.58,12.57,5.43,18.84-3.63-4.14-7.75-8.47-11.51-12.55l-4.31-4.68c-1-1.1-2.62-3.16-3.93-3.8-1.01-.5-2.73.33-3.08,1.41-.3.92-.53,2.01-.76,3l-1.29,5.56-4.44,18.57c-.31-.75-1.05-3.97-1.26-4.87l-3.48-14.6c-.56-2.37-1.06-4.74-1.67-7.11-.29-1.26-1.16-2.08-2.5-2.08-1.38,0-2.61,1.74-3.49,2.71l-3.68,3.99-13.29,14.42c.72-2.14,1.53-5.17,2.15-7.37l2.46-8.62,1.93-6.8c.37-1.28,1.34-4.08,1.1-5.26-.12-.63-.51-1.18-1.07-1.5-1.26-.74-3.29.12-4.64.51l-5.91,1.74-18.18,5.27c1.71-1.75,4-3.74,5.86-5.43l9.76-8.85c.97-.88,5.14-4.44,5.49-5.39.24-.63.19-1.34-.12-1.94-.69-1.3-2.25-1.47-3.56-1.78l-4.47-1.04-12.13-2.83c-2.49-.56-5.71-1.19-8.11-1.89,8.71-1.69,17.52-4.22,26.21-6.09.43-.15,1.13-.3,1.45-.62,2.37-2.39-.58-4.36-2.13-5.72l-3.83-3.38-9.3-8.26c-1.78-1.59-3.45-3.01-5.2-4.66l17.84,5.19c2.4.7,4.82,1.38,7.22,2.08.74.22,2.06.63,2.81.44.76-.19,1.4-.69,1.78-1.37.68-1.25-.31-3.48-.73-4.79l-1.55-4.86c-2.02-6.18-4-12.38-5.94-18.59l12.9,13.42,4.18,4.36c.82.85,1.63,1.67,2.48,2.5.98,1.13,3.64.54,4.02-.88,2.37-8.93,4.28-18.17,6.51-27.13Z"/>
</svg>